PathFileType	4	(X/Y/Z)	59_2_23_p1_0-274.trc
DataRate	CameraRate	NumFrames	NumMarkers	Units	OrigDataRate	OrigDataStartFrame	OrigNumFrames
50.0	50.0	7	27	m	50.0	0	275
Frame#	Time	RHip			RKnee			RAnkle			RBigToe			RSmallToe			RHeel			LHip			LKnee			LAnkle			LBigToe			LSmallToe			LHeel			Neck			Head			Nose			RShoulder			RElbow			RWrist			RThumb			RIndex			RPinky			LShoulder			LElbow			LWrist			LThumb			LIndex			LPinky			
		X1	Y1	Z1	X2	Y2	Z2	X3	Y3	Z3	X4	Y4	Z4	X5	Y5	Z5	X6	Y6	Z6	X7	Y7	Z7	X8	Y8	Z8	X9	Y9	Z9	X10	Y10	Z10	X11	Y11	Z11	X12	Y12	Z12	X13	Y13	Z13	X14	Y14	Z14	X15	Y15	Z15	X16	Y16	Z16	X17	Y17	Z17	X18	Y18	Z18	X19	Y19	Z19	X20	Y20	Z20	X21	Y21	Z21	X22	Y22	Z22	X23	Y23	Z23	X24	Y24	Z24	X25	Y25	Z25	X26	Y26	Z26	X27	Y27	Z27	
0	0.0	0.3052680786919479	0.4996257951676061	1.077168159748427	0.2961714107620264	0.6031099678095665	1.5077189995683635	0.30654327718514357	0.7483970364108645	1.9016326791438052	0.2825133671755632	0.575722717466749	1.9502245976038108	0.3401855896975054	0.6066726881892561	1.9385040373823899	0.2868322030722725	0.8438512682352068	1.9617512649016293	0.10134611138429582	0.5042307324070406	1.0829621581268436	0.09979761835755169	0.6546032380281459	1.5333335058805662	0.10301325419808562	0.7351377871937588	1.8927241301017474	0.11204725389953077	0.5595307074267959	1.9312332623265598	0.05688450228383124	0.6189177670483587	1.9305928434354982	0.11024105633011548	0.7886404999879844	1.9325385154873935	0.23172617539463528	0.4106706952413322	0.49561293361391445	0.2296966689949628	0.3543722384022469	0.24462079389516744	0.22867041193600196	0.3044448004181228	0.3766230674794218	0.3801527898265843	0.42138717893084987	0.610991998554227	0.3674541520624414	0.4164563083904266	0.8730931690056294	0.2329418491978582	0.2641762137747677	1.037904702680593	0.12417381204015045	0.24497207053298303	1.0560061609997387	0.14667275851231618	0.26225112561741565	1.1557172944029865	0.15015512334493322	0.2589396047381529	1.1601778902214017	0.06219450389688636	0.4002588960423008	0.6054953247906976	0.09698641993409862	0.3537726420014679	0.8552705157938676	0.16315188622710242	0.26208217465525296	1.0559297572261934	0.1793557551417327	0.2932564935906168	1.119953361037648	0.17426427119914978	0.2818362249544685	1.1711667277559874	0.18731460507873263	0.2403727098745374	1.1640624683348002
1	0.02	0.30651229451274303	0.4846994086093867	1.0723306828633383	0.2963975161083015	0.6011510060658858	1.5115027638181187	0.2976585013310911	0.7315808944389718	1.8956834524129877	0.2860097228512956	0.5890663844983334	1.9556842897786668	0.34379135369209995	0.5908884159650939	1.9311706952565053	0.2812388413757309	0.8295473005343054	1.9609917095192466	0.10344284445111941	0.47803660249976165	1.0841246830710258	0.10141435563711619	0.6552779722265591	1.5426635160311566	0.10101021943421619	0.7335501459149872	1.8923178379421677	0.11206264203662515	0.5592482894913438	1.9311504428090678	0.06182282641052094	0.6043586637542409	1.924349181638402	0.10950894561966436	0.788511028253883	1.9417774674530184	0.2315299184209564	0.41145248010451024	0.49200562093644185	0.2337730410168313	0.3566983284104201	0.24750684959169145	0.2254281247206722	0.2922874212651991	0.3745068534263169	0.3800570589400298	0.4214995016545524	0.611090080723601	0.366900196452467	0.41812641629411723	0.8729852130893354	0.22696907001939393	0.2663497170146961	1.0422240436835728	0.12821885424502913	0.24585132078268093	1.060070076823195	0.1435065436464653	0.2747066136002847	1.1467252708150526	0.1400745795923855	0.28857641826461455	1.1474516299212998	0.06218127400293604	0.4001721276799543	0.6055768150169712	0.09455659117020113	0.3409847129422489	0.8583311662910695	0.16085070507338312	0.29012337208776845	1.0658786984976554	0.16390444092324233	0.28158678852442115	1.085034922762758	0.17223277774291176	0.28513310548560705	1.17142657822103	0.18990866673951917	0.2596042087534869	1.1725250046287767
2	0.04	0.30666237728369156	0.500565302717934	1.0782532397549633	0.29187989124671926	0.6008491307700856	1.5113169706816436	0.30132206613257384	0.7495994334578786	1.8977025038773367	0.2859546443808417	0.5890683673184558	1.9556477244837813	0.3436874566513607	0.5904391890624534	1.9311240445676408	0.2857669664852278	0.8458758820119838	1.9671029988539004	0.10752626003808967	0.4793330965353191	1.0838957678555137	0.10828803295604716	0.63988752030438	1.5318335953650308	0.10311562478068526	0.7352260431631821	1.8929816670739466	0.11206221779793396	0.5594445817686255	1.9311115974079138	0.06179448617794976	0.6046839772956956	1.9243858016271786	0.11030527777904119	0.7888848565146345	1.9326072636587452	0.231529428680593	0.41145643538265336	0.4918724381331016	0.2337460586121902	0.35678177592166277	0.24751575630905584	0.2254349860390268	0.29266221611701637	0.37427053670633553	0.3800657701237042	0.4216055184379843	0.6110276272698533	0.37158355721334524	0.41772673709160346	0.8692193802811733	0.22747861607199812	0.26631358243352277	1.0388008308353764	0.12500254401418323	0.24363916788443774	1.0427749853128576	0.13970597058095327	0.2719757257543534	1.1373841347667322	0.14255511471091897	0.2808126856944997	1.1377423105831366	0.06222086859390385	0.40024043443388474	0.605572673817848	0.08963993336550395	0.343070767371547	0.8544270945336432	0.15881902757900235	0.2933540507763199	1.0569360191592805	0.1675032400925748	0.26708046391897977	1.0752180009446777	0.17067805296379202	0.2883065576889854	1.1695583961808893	0.18567524578253403	0.27158765697973736	1.1746007619086207
3	0.06	0.3115470915740637	0.4873413263985433	1.0766999301141789	0.2963800495076179	0.600914125913747	1.511197370186823	0.29733510424703663	0.7337558983692237	1.8914118579053842	0.2823735002194231	0.5758280271595433	1.9500743895454702	0.34393086298297615	0.5907226534068563	1.9312139360874356	0.2867481017298136	0.8438794149304178	1.961720492266037	0.10444622235911463	0.47595051045532916	1.0834827824784592	0.10448056912991098	0.6371694274822082	1.5351572043323036	0.10322609843988483	0.7350636418933064	1.8929103181261182	0.11204638362832624	0.5594323659470747	1.931110619937687	0.056818778255368324	0.618979856074911	1.930596342434289	0.11067230465223497	0.7871329101133685	1.9358907651858133	0.2315406205504227	0.41143266695447084	0.4919016083008731	0.23374980268685852	0.356702005690671	0.24753758185997807	0.2254240803824983	0.29250287265330976	0.37429513602042075	0.3800209376245215	0.42150451209203854	0.6110423425682306	0.37538434905681894	0.4035900096664292	0.8643621907438724	0.23555715697961277	0.27788117423769754	1.0409472899146672	0.13057286606749402	0.2413822232151074	1.0412458125031283	0.13911648344979405	0.26814952680487203	1.124656525557324	0.14598504758023706	0.276875188556177	1.1393185093615117	0.05940582354926073	0.3882707846515324	0.6056191088979298	0.0856707589853521	0.35424673965496056	0.8449770457604117	0.1464354072459216	0.29440361631999085	1.0319780679238033	0.16656483115721135	0.2656640574223551	1.0695653759305708	0.1675618309196295	0.29732220320790215	1.1553045720100992	0.18187011318945157	0.2842958345368631	1.166226374166362
4	0.08	0.30711746457507383	0.4752466120038748	1.078955832161193	0.2963937755225696	0.6018404305637012	1.5119077104108707	0.2972845419669811	0.733690795997493	1.8913230345450447	0.28600272775370505	0.5893383723626335	1.9557963917775636	0.3441387849006697	0.5919041923917645	1.9313803636194953	0.2812027301713091	0.824902704169891	1.949873187086973	0.10346400484976678	0.47750032542772447	1.0845656063294995	0.10022943191502938	0.6542025199478242	1.5448659244139487	0.10324787595475653	0.7351039303387343	1.8930743211656367	0.11289456482136837	0.562474112289322	1.9367338459048382	0.0568166520890557	0.6192733567661304	1.9306199348314008	0.11591420050251565	0.7701967851713407	1.9290700857108036	0.231544522647672	0.4114786197065637	0.4918891299402627	0.23374606418231783	0.35679329424135825	0.2475204494615345	0.22544673466712178	0.29275224160561514	0.3742811642695522	0.3806029909547661	0.4231891973589608	0.6144313642879426	0.3758352609677658	0.4021699837133437	0.86081019769207	0.23991866641483672	0.26268223945560654	1.0347219639315963	0.12644073761164598	0.24915031737031346	1.031957276182971	0.13724790113523658	0.26776630185565603	1.1194938755944746	0.14865422242119916	0.2748838933754401	1.1438118275136726	0.05930553555608258	0.3881483537581546	0.6056330886135789	0.08558738605991849	0.35432930040216015	0.8440304811801991	0.1371805306310252	0.3076580395401266	1.0345280292578232	0.17243088753150002	0.27811204925836713	1.0715644892093161	0.16781056781810993	0.30816509808142384	1.1434641079799202	0.1800248108799366	0.2843691784450822	1.1687936942590271
5	0.1	0.310920447288038	0.48877371576991857	1.0808698892134883	0.29194189270820115	0.6008890613663473	1.5119902887705643	0.3013347219417513	0.749643853542706	1.897720684760745	0.2859756402548899	0.5892930603059654	1.955733011858308	0.34379703189349825	0.591045467338409	1.9311771392782382	0.2867833360794557	0.8440932220031954	1.9617674867922663	0.10701503263172264	0.47851170158428424	1.084866158131722	0.1044610459743521	0.6554993553303389	1.5453510927740564	0.1032376353728155	0.7351394957986586	1.8929457594625658	0.11199098128299625	0.5595952034480669	1.9312167767073287	0.056769552625958855	0.6190846267610363	1.9306231585937483	0.11072867406183481	0.7870029676168692	1.9358363636265477	0.23157267331282363	0.41146164786748357	0.4919131997464853	0.23377612429641462	0.35701551996844877	0.24745035432227097	0.22842437171994712	0.30364460113035696	0.3733641196196435	0.38066981190898086	0.42293509275661667	0.6145134326919285	0.3757679165923448	0.40200596613843914	0.8607590107123744	0.2405603921682762	0.2644185163275744	1.038928584701129	0.12597697385403547	0.252440893114454	1.0363132545084255	0.13422311613551696	0.26835282149532325	1.12001720351404	0.14952737358218943	0.2742070523128828	1.1441861151161903	0.05933781445746315	0.38845376516906766	0.6056088437083056	0.08515576313927763	0.35274066268587273	0.8398126514264914	0.14114883701681533	0.2939978049511837	1.0275403165340384	0.17224633051878582	0.27768416201077134	1.072108085463818	0.1589968716708049	0.29824114450689904	1.1438464325199544	0.1755319033807086	0.28515978402067	1.1724889452732403
6	0.12	0.310225524104068	0.4900930051614062	1.0848649393033731	0.2911100213684271	0.6018949372808645	1.516303337956142	0.30127727568879625	0.7497588865993831	1.8978649291288872	0.2860515995851632	0.5892170235575104	1.9556873029853885	0.3438948195935061	0.5915174478226891	1.9312127496706626	0.2845486603648126	0.8429463474416763	1.9615483411105452	0.10687904162336072	0.47864163835647194	1.0850618299594639	0.10863867267016118	0.6377975951341014	1.5350589355112165	0.1033298416427526	0.7350953937025172	1.8931303486163082	0.11508408921704837	0.5737033344636382	1.9372282859959187	0.05681737769396547	0.6190769233128787	1.930701932867723	0.1106432376350638	0.7871925944103538	1.935946325863229	0.23158970873482895	0.4113776500503157	0.4919494017557294	0.23375387566955577	0.3570368667635009	0.2474197912352268	0.22843842074329768	0.3037803743926534	0.3732294423948595	0.3806843641667496	0.42278634635214807	0.6145345931902663	0.37578520752993844	0.40194968092750305	0.860785404809195	0.2405092548182615	0.2643422154404225	1.038814700662233	0.12168734246235927	0.24708548470937475	1.0340535108805857	0.13300414131163885	0.2933510301183295	1.1241224887732912	0.1495278646183509	0.2738580143867509	1.1439240648013302	0.059378075662457085	0.3884913294778419	0.60559350857607	0.08551141088835928	0.3543951512571401	0.8444221548849864	0.14112049756011483	0.29394089263828843	1.027763294740672	0.17229397687275003	0.2783850027628832	1.0719455759722725	0.15945181930345187	0.29781861109933633	1.1401247004825839	0.17621407285739452	0.28359243861807815	1.1692186048271793
